<mxfile host="Electron" agent="Mozilla/5.0 (Windows NT 10.0; Win64; x64) AppleWebKit/537.36 (KHTML, like Gecko) draw.io/24.7.8 Chrome/128.0.6613.36 Electron/32.0.1 Safari/537.36" version="24.7.8">
  <diagram name="PÃ¡gina-1" id="gGiKMwL13WdOnm8KzJCb">
    <mxGraphModel dx="1050" dy="621" grid="1" gridSize="10" guides="1" tooltips="1" connect="1" arrows="1" fold="1" page="1" pageScale="1" pageWidth="827" pageHeight="1169" math="0" shadow="0">
      <root>
        <mxCell id="0" />
        <mxCell id="1" parent="0" />
        <mxCell id="aO39N01HxA85NMX0UTEk-11" style="edgeStyle=orthogonalEdgeStyle;rounded=0;orthogonalLoop=1;jettySize=auto;html=1;endArrow=none;endFill=0;" edge="1" parent="1" source="aO39N01HxA85NMX0UTEk-1" target="aO39N01HxA85NMX0UTEk-4">
          <mxGeometry relative="1" as="geometry">
            <Array as="points">
              <mxPoint x="420" y="130" />
              <mxPoint x="420" y="185" />
            </Array>
          </mxGeometry>
        </mxCell>
        <mxCell id="aO39N01HxA85NMX0UTEk-12" style="edgeStyle=orthogonalEdgeStyle;rounded=0;orthogonalLoop=1;jettySize=auto;html=1;entryX=0.5;entryY=0;entryDx=0;entryDy=0;endArrow=none;endFill=0;" edge="1" parent="1" source="aO39N01HxA85NMX0UTEk-1" target="aO39N01HxA85NMX0UTEk-7">
          <mxGeometry relative="1" as="geometry">
            <Array as="points">
              <mxPoint x="420" y="130" />
              <mxPoint x="420" y="50" />
              <mxPoint x="590" y="50" />
              <mxPoint x="590" y="70" />
            </Array>
          </mxGeometry>
        </mxCell>
        <mxCell id="aO39N01HxA85NMX0UTEk-13" style="edgeStyle=orthogonalEdgeStyle;rounded=0;orthogonalLoop=1;jettySize=auto;html=1;entryX=0;entryY=0.5;entryDx=0;entryDy=0;endArrow=none;endFill=0;" edge="1" parent="1" source="aO39N01HxA85NMX0UTEk-1" target="aO39N01HxA85NMX0UTEk-6">
          <mxGeometry relative="1" as="geometry">
            <Array as="points">
              <mxPoint x="420" y="130" />
              <mxPoint x="420" y="265" />
            </Array>
          </mxGeometry>
        </mxCell>
        <mxCell id="aO39N01HxA85NMX0UTEk-1" value="User" style="shape=umlActor;verticalLabelPosition=bottom;verticalAlign=top;html=1;" vertex="1" parent="1">
          <mxGeometry x="290" y="100" width="30" height="60" as="geometry" />
        </mxCell>
        <mxCell id="aO39N01HxA85NMX0UTEk-15" style="edgeStyle=orthogonalEdgeStyle;rounded=0;orthogonalLoop=1;jettySize=auto;html=1;entryX=0.5;entryY=1;entryDx=0;entryDy=0;endArrow=none;endFill=0;" edge="1" parent="1" source="aO39N01HxA85NMX0UTEk-2" target="aO39N01HxA85NMX0UTEk-3">
          <mxGeometry relative="1" as="geometry" />
        </mxCell>
        <mxCell id="aO39N01HxA85NMX0UTEk-18" style="edgeStyle=orthogonalEdgeStyle;rounded=0;orthogonalLoop=1;jettySize=auto;html=1;entryX=0.5;entryY=1;entryDx=0;entryDy=0;endArrow=none;endFill=0;" edge="1" parent="1" source="aO39N01HxA85NMX0UTEk-2" target="aO39N01HxA85NMX0UTEk-5">
          <mxGeometry relative="1" as="geometry" />
        </mxCell>
        <mxCell id="aO39N01HxA85NMX0UTEk-19" style="edgeStyle=orthogonalEdgeStyle;rounded=0;orthogonalLoop=1;jettySize=auto;html=1;entryX=1;entryY=0.5;entryDx=0;entryDy=0;endArrow=none;endFill=0;" edge="1" parent="1" source="aO39N01HxA85NMX0UTEk-2" target="aO39N01HxA85NMX0UTEk-9">
          <mxGeometry relative="1" as="geometry" />
        </mxCell>
        <mxCell id="aO39N01HxA85NMX0UTEk-20" style="edgeStyle=orthogonalEdgeStyle;rounded=0;orthogonalLoop=1;jettySize=auto;html=1;entryX=1;entryY=0.5;entryDx=0;entryDy=0;endArrow=none;endFill=0;" edge="1" parent="1" source="aO39N01HxA85NMX0UTEk-2" target="aO39N01HxA85NMX0UTEk-8">
          <mxGeometry relative="1" as="geometry" />
        </mxCell>
        <mxCell id="aO39N01HxA85NMX0UTEk-2" value="Manager" style="shape=umlActor;verticalLabelPosition=bottom;verticalAlign=top;html=1;" vertex="1" parent="1">
          <mxGeometry x="290" y="490" width="30" height="60" as="geometry" />
        </mxCell>
        <mxCell id="aO39N01HxA85NMX0UTEk-3" value="Schedule Presentation" style="ellipse;whiteSpace=wrap;html=1;" vertex="1" parent="1">
          <mxGeometry x="530" y="330" width="140" height="70" as="geometry" />
        </mxCell>
        <mxCell id="aO39N01HxA85NMX0UTEk-4" value="Share Documents" style="ellipse;whiteSpace=wrap;html=1;" vertex="1" parent="1">
          <mxGeometry x="530" y="150" width="140" height="70" as="geometry" />
        </mxCell>
        <mxCell id="aO39N01HxA85NMX0UTEk-5" value="Schedule Events" style="ellipse;whiteSpace=wrap;html=1;" vertex="1" parent="1">
          <mxGeometry x="687" y="330" width="140" height="70" as="geometry" />
        </mxCell>
        <mxCell id="aO39N01HxA85NMX0UTEk-6" value="Discuss Topics" style="ellipse;whiteSpace=wrap;html=1;" vertex="1" parent="1">
          <mxGeometry x="530" y="230" width="140" height="70" as="geometry" />
        </mxCell>
        <mxCell id="aO39N01HxA85NMX0UTEk-7" value="Make a announcement" style="ellipse;whiteSpace=wrap;html=1;" vertex="1" parent="1">
          <mxGeometry x="530" y="70" width="140" height="70" as="geometry" />
        </mxCell>
        <mxCell id="aO39N01HxA85NMX0UTEk-8" value="Manage Users" style="ellipse;whiteSpace=wrap;html=1;" vertex="1" parent="1">
          <mxGeometry x="687" y="150" width="140" height="70" as="geometry" />
        </mxCell>
        <mxCell id="aO39N01HxA85NMX0UTEk-9" value="Manage Roles" style="ellipse;whiteSpace=wrap;html=1;" vertex="1" parent="1">
          <mxGeometry x="687" y="240" width="140" height="70" as="geometry" />
        </mxCell>
        <mxCell id="aO39N01HxA85NMX0UTEk-17" style="edgeStyle=orthogonalEdgeStyle;rounded=0;orthogonalLoop=1;jettySize=auto;html=1;entryX=0.5;entryY=0;entryDx=0;entryDy=0;entryPerimeter=0;startArrow=classic;startFill=1;endArrow=none;endFill=0;" edge="1" parent="1" target="aO39N01HxA85NMX0UTEk-2">
          <mxGeometry relative="1" as="geometry">
            <mxPoint x="305" y="180" as="sourcePoint" />
          </mxGeometry>
        </mxCell>
        <mxCell id="aO39N01HxA85NMX0UTEk-23" value="Discord" style="swimlane;" vertex="1" parent="1">
          <mxGeometry x="500" y="5" width="370" height="425" as="geometry" />
        </mxCell>
      </root>
    </mxGraphModel>
  </diagram>
</mxfile>
